<?xml version="1.0" encoding="UTF-8" standalone="no"?>
<svg width="73px" height="71px" viewBox="0 0 73 71" version="1.1" xmlns="http://www.w3.org/2000/svg" xmlns:xlink="http://www.w3.org/1999/xlink">
    <!-- Generator: Sketch 43.2 (39069) - http://www.bohemiancoding.com/sketch -->
    <title>Group</title>
    <desc>Created with Sketch.</desc>
    <defs></defs>
    <g id="CN" stroke="none" stroke-width="1" fill="none" fill-rule="evenodd">
        <g id="评价提交之后" transform="translate(-159.000000, -161.000000)">
            <g id="Group" transform="translate(161.000000, 163.000000)">
                <path d="M37.3158164,2 C19.0901423,2 4.31561495,16.7921573 4.31561495,35.0395795 C4.31561495,53.2865984 19.0901423,68.0787556 37.3158164,68.0787556 C55.5410876,68.0787556 70.315615,53.2865984 70.315615,35.0395795 C70.315615,16.7921573 55.5410876,2 37.3158164,2 L37.3158164,2 L37.3158164,2 Z" id="Shape-Copy" fill="#5764C6"></path>
                <path d="M58.3832163,43.1438718 C51.9204459,57.784966 41.0750561,55.1575309 37.3158164,68.0787556 C55.5410876,68.0787556 70.315615,53.2865984 70.315615,35.0395795 C70.315615,25.33578 66.1373673,16.6091321 59.4838632,10.5645986 C54.4255314,21.975838 64.8459868,28.5027776 58.3832163,43.1438718 Z" id="Shape-Copy-2" fill="#5764C6"></path>
                <path d="M1.77679138,23.2870649 C2.74948965,20.1302121 4.18202114,17.1753411 5.99607559,14.5008558 C11.932089,5.74930986 21.9532692,0 33.3158164,0 C51.5410876,0 66.315615,14.7921573 66.315615,33.0395795 C66.315615,39.4833084 64.4731286,45.4961921 61.2868423,50.578949 M56.7761712,56.2749901 C55.7036896,57.360367 54.5566063,58.3717047 53.3432544,59.3006604 M47.3371185,62.9567584 C43.081612,64.9594255 38.329274,66.0787556 33.3158164,66.0787556 C15.0901423,66.0787556 0.315614953,51.2865984 0.315614953,33.0395795" id="Shape" stroke="#4C3A30" stroke-width="4" stroke-linecap="round" stroke-linejoin="round"></path>
                <path d="M52.683155,23.9271863 L30.5712831,46.0654436 C30.0318292,46.6058283 29.3242935,46.875913 28.6169729,46.875913 C27.9094372,46.875913 27.2021883,46.6058283 26.6623759,46.0654436 L13.9481015,33.3359259 C12.8688353,32.2551564 12.8688353,30.5029802 13.9481015,29.4224261 C15.0275829,28.3415848 16.7777425,28.3415848 17.8572239,29.4224261 L28.6169729,40.1950144 L48.7743194,20.0136147 C49.853514,18.9327734 51.6039604,18.9327734 52.683155,20.0136147 C53.7627081,21.0941689 53.7627081,22.846345 52.683155,23.9271863 L52.683155,23.9271863 L52.683155,23.9271863 Z" id="Path" fill="#FFFFFF"></path>
            </g>
        </g>
    </g>
</svg>