<?xml version="1.0" encoding="UTF-8" standalone="no"?>
<svg width="89px" height="86px" viewBox="0 0 89 86" version="1.1" xmlns="http://www.w3.org/2000/svg" xmlns:xlink="http://www.w3.org/1999/xlink">
    <!-- Generator: Sketch 43.2 (39069) - http://www.bohemiancoding.com/sketch -->
    <title>Group</title>
    <desc>Created with Sketch.</desc>
    <defs></defs>
    <g id="CN" stroke="none" stroke-width="1" fill="none" fill-rule="evenodd">
        <g id="全部订单为空时" transform="translate(-142.000000, -144.000000)">
            <g id="Group-2" transform="translate(142.000000, 144.000000)">
                <g id="Group">
                    <rect id="Rectangle-10" fill="#FFFFFF" x="4" y="20" width="62" height="63"></rect>
                    <rect id="Rectangle-9" fill="#5764C6" x="25" y="9" width="64" height="59" rx="4"></rect>
                    <rect id="Rectangle" fill="#FFFFFF" x="31" y="15" width="7" height="7" rx="3.5"></rect>
                    <rect id="Rectangle-Copy" fill="#FFFFFF" x="41" y="17" width="27" height="3" rx="1.5"></rect>
                    <rect id="Rectangle-Copy-3" fill="#FFFFFF" x="31" y="26" width="7" height="7" rx="3.5"></rect>
                    <rect id="Rectangle-Copy-2" fill="#FFFFFF" x="41" y="28" width="27" height="3" rx="1.5"></rect>
                    <rect id="Rectangle-11" fill="#5764C6" x="31" y="60" width="49" height="9" rx="2"></rect>
                    <rect id="Rectangle-Copy-5" fill="#FFFFFF" x="31" y="38" width="7" height="7" rx="3.5"></rect>
                    <rect id="Rectangle-Copy-4" fill="#FFFFFF" x="41" y="40" width="27" height="3" rx="1.5"></rect>
                    <path d="M60,82 L10,82 C7.63977414,81.9619345 3.96726181,79.469834 4,77 L4,69.7811327 C4,67.9604032 2.70890307,66.6529248 2.70890307,64.8321953 C2.70890307,63.3896077 4,61.433769 4,59.9911814 L4,24 C3.96726181,21.6121528 6.39073671,20.1158791 9,20 L11,20 C12.7171911,20.1158791 13.8742733,20.4632283 14,18 C13.8742733,16.2896944 12.797544,16 11,16 L9,16 C2.04096454,16 0,17.20349 0,24 L0,59.8416305 C0,61.5048862 1.06213772,63.2894879 1.06213772,64.9527435 C1.06213772,66.6348779 0,68.1956663 0,69.8778006 L0,77 C0,83.5418367 2.43737233,86 9,86 L60,86 C66.7679313,85.711433 68.3160645,84.2953172 69,77 C68.6417847,76.7626468 67.8634644,76.3324585 67.0679932,76.3324585 C66.272522,76.3324585 65.1556702,76.5428146 65,77 C64.567552,79.5767109 62.5943724,81.9619345 60,82 Z" id="Shape" fill="#4C3A30"></path>
                    <path d="M7,67 L-3,67 C-1.8954305,67 -1,66.1045695 -1,65 C-1,63.8954305 -1.8954305,63 -3,63 L7,63 C5.8954305,63 5,63.8954305 5,65 C5,66.1045695 5.8954305,67 7,67 Z" id="Combined-Shape-Copy-2" fill="#FFFFFF" transform="translate(2.000000, 65.000000) rotate(90.000000) translate(-2.000000, -65.000000) "></path>
                    <path d="M43.5029768,6.97400555 L59.8186064,6.97400555 C62.2935999,6.97400555 64.3981497,6.90958056 64.3981497,4.10172461 C64.3981497,1.24554991 62.2935999,0.0214749971 59.7273377,0.0214749971 L43.5029768,0.0214749971 C40.9259771,0.0214749971 38.8321648,1.25091866 38.8321648,4.10172461 C38.8321648,6.95253055 40.9259771,6.97400555 43.5029768,6.97400555 L43.5029768,6.97400555 L43.5029768,6.97400555 L43.5029768,6.97400555 Z M77.3803906,1.00000512 L72.6797656,1.00000512 C70.8092187,1.00000512 69.0029869,1.3087732 69.0029869,3.2674675 C69.0029869,5.1191294 70.7067953,5.00295435 72.6797641,5.00295435 L77.3803925,5.00295435 C79.5689862,5.00295435 82.0507773,7.53433828 82.0507773,9.70709761 L82.0507773,53.3296259 C82.0507773,54.8507553 83.3836136,56.4151347 83.3836136,57.936264 C83.3836136,59.4840173 82.0507773,60.9885206 82.0507773,62.5362739 L82.0507773,63.3999386 C82.0507773,65.5834011 79.5689862,67.5204426 77.3803925,67.5204426 L26.9033898,67.5204426 C24.6393273,67.5204426 20.9315584,65.4656654 20.9315584,63.3999386 L20.9315584,43.5466303 C20.9315584,42.0484602 19.6005826,40.5160572 19.6005826,39.0178871 C19.6005826,37.5083065 20.9315584,36.0329588 20.9315584,34.5233781 L20.9315584,28.4338368 C20.9315584,26.9404744 19.6005826,25.3405723 19.6005826,23.8472099 C19.6005826,22.2786538 20.9315584,20.8166375 20.9315584,19.2480814 L20.9315584,9.9565226 C20.9315584,7.78376327 23.4364059,5.00295435 25.619609,5.00295435 L31.5115629,5.00295435 C33.2419535,5.00295435 34.0692683,5.00295434 34.0692683,2.99053866 C34.0692683,0.978122988 33.3228125,1.00000504 31.5115625,1.00000504 L25.6196094,1.00000512 C19.0538281,1.00000512 17,3.10854496 17,9.70174568 L17,19.4230848 C17,20.897793 18.3203655,22.3725018 18.3203655,23.8472099 C18.3203655,25.4723056 17,27.0974006 17,28.7224962 L17,34.3037585 C17,35.6252585 18.5769089,37.1348408 18.5769089,38.4563408 C18.5769089,40.2800301 17,41.9156371 17,43.7393264 L17,62.9022393 C17,69.5329014 19.4473437,72 26.1209375,72 L76.8844531,72 C83.9623437,72 86,69.9289215 86,62.9022393 C86,62.9022393 84.5175781,59.748433 84.5175781,57.936264 C84.5175781,56.4927419 86,54.5786881 86,53.135166 C86,38.659143 86,9.70709722 86,9.70709722 C86,7.15437261 85.8598438,5.49001753 84.5175781,4.06113399 C83.0405468,2.47705328 80.6147656,1.00000512 77.3803906,1.00000512 Z" id="Shape" fill="#4C3A30"></path>
                    <path d="M24,26 L14,26 C15.1045695,26 16,25.1045695 16,24 C16,22.8954305 15.1045695,22 14,22 L24,22 C22.8954305,22 22,22.8954305 22,24 C22,25.1045695 22.8954305,26 24,26 Z" id="Combined-Shape-Copy-3" fill="#FFFFFF" transform="translate(19.000000, 24.000000) rotate(90.000000) translate(-19.000000, -24.000000) "></path>
                    <path d="M89,60 L79,60 C80.1045695,60 81,59.1045695 81,58 C81,56.8954305 80.1045695,56 79,56 L89,56 C87.8954305,56 87,56.8954305 87,58 C87,59.1045695 87.8954305,60 89,60 Z" id="Combined-Shape-Copy-5" fill="#5764C6" transform="translate(84.000000, 58.000000) rotate(90.000000) translate(-84.000000, -58.000000) "></path>
                    <path d="M24,41 L14,41 C15.1045695,41 16,40.1045695 16,39 C16,37.8954305 15.1045695,37 14,37 L24,37 C22.8954305,37 22,37.8954305 22,39 C22,40.1045695 22.8954305,41 24,41 Z" id="Combined-Shape-Copy-4" fill="#FFFFFF" transform="translate(19.000000, 39.000000) rotate(90.000000) translate(-19.000000, -39.000000) "></path>
                </g>
            </g>
        </g>
    </g>
</svg>