<?xml version="1.0" encoding="UTF-8" standalone="no"?>
<svg width="1164px" height="1176px" viewBox="0 0 1164 1176" version="1.1" xmlns="http://www.w3.org/2000/svg" xmlns:xlink="http://www.w3.org/1999/xlink">
    <!-- Generator: Sketch 43.2 (39069) - http://www.bohemiancoding.com/sketch -->
    <title>Rocket</title>
    <desc>Created with Sketch.</desc>
    <defs>
        <linearGradient x1="0%" y1="50%" x2="100%" y2="50%" id="linearGradient-1">
            <stop stop-color="#FFB700" offset="0%"></stop>
            <stop stop-color="#E85600" offset="100%"></stop>
        </linearGradient>
    </defs>
    <g id="Page-1" stroke="none" stroke-width="1" fill="none" fill-rule="evenodd">
        <g id="Rocket" transform="translate(610.075379, 565.924621) rotate(-45.000000) translate(-610.075379, -565.924621) translate(-180.924621, 185.424621)">
            <polygon id="Flank-1" fill="#4C59C2" points="306.223108 3.22901565 647.504789 0.32697724 771.845596 121.230513 777.939385 242.232257 443.237622 255.681805 441.931459 138.313748"></polygon>
            <polygon id="Flank-2" fill="#4C59C2" transform="translate(542.000000, 633.000000) scale(1, -1) translate(-542.000000, -633.000000) " points="306.223108 508.229016 647.504789 505.326977 771.845596 626.230513 777.939385 747.232257 443.237622 760.681805 441.931459 643.313748"></polygon>
            <path d="M302.140919,538.345682 C415.08315,538.345682 465.308002,507.908517 465.308002,373.408517 C465.308002,238.908517 415.08315,208.471353 302.140919,208.471353 C189.198687,208.471353 -0.400676727,383.5 -0.400676727,383.5 C-0.400676727,383.5 189.198687,538.345682 302.140919,538.345682 Z" id="Fire" fill="url(#linearGradient-1)"></path>
            <path d="M910.819564,656.955261 C1238.60056,656.955261 1582.22752,371.595045 1582.22752,371.595045 C1582.22752,371.595045 1238.60056,103.651655 910.819564,103.651655 C583.038565,103.651655 345.725178,264.80345 345.725178,380.30345 C345.725178,495.80345 583.038565,656.955261 910.819564,656.955261 Z" id="Body" fill="#EFF1FA"></path>
            <circle id="Window" fill="#ACB3C2" cx="1088.5" cy="373.014719" r="124.5"></circle>
            <path d="M862.210942,371.977084 L862.504139,371.97235 L811.266224,320.229205 L335.742817,290.506095 L254.230213,381.793532 L254.291612,381.792541 L337.823709,472.068428 L811.996989,425.105582 L862.210942,371.977084 Z" id="Flank-3" fill="#4C59C2"></path>
        </g>
    </g>
</svg>